<svg id="Layer_1" data-name="Layer 1" xmlns="http://www.w3.org/2000/svg" xmlns:xlink="http://www.w3.org/1999/xlink" viewBox="0 0 1367 769.05"><defs><style>.cls-1,.cls-2{stroke:#000;stroke-miterlimit:10;}.cls-1{fill:url(#linear-gradient);}.cls-2{fill:url(#linear-gradient-2);}</style><linearGradient id="linear-gradient" y1="383.97" x2="1367.95" y2="383.97" gradientUnits="userSpaceOnUse"><stop offset="0" stop-color="#00edff"/><stop offset="0.06" stop-color="#06e1ff"/><stop offset="0.39" stop-color="#279cff"/><stop offset="0.67" stop-color="#3f6aff"/><stop offset="0.88" stop-color="#4d4bff"/><stop offset="1" stop-color="#533fff"/></linearGradient><linearGradient id="linear-gradient-2" x1="1032.53" y1="455.08" x2="1208.34" y2="455.08" gradientTransform="translate(52.83 535.81) rotate(-27.03)" gradientUnits="userSpaceOnUse"><stop offset="0" stop-color="#15ceff"/><stop offset="0.37" stop-color="#6a89ff"/><stop offset="0.67" stop-color="#aa56ff"/><stop offset="0.89" stop-color="#d136ff"/><stop offset="1" stop-color="#e02aff"/></linearGradient></defs><path class="cls-1" d="M1362,235.84h-.66a.84.84,0,0,0-.84.84v0a.84.84,0,0,1-.79.85c-79,4.45-150.66-17.4-211.61-68-10.18-8.45-19.73-17.64-29.88-26.13a284.81,284.81,0,0,0-174-65.57c-18.55-.46-37.19.91-55.65-1-13-1.35-25.83-4.32-38.52-7.55-19.1-4.85-39.32-11.1-51.66-26.46-7.1-8.83-9.78-19-13.07-29.59C780.75-1.52,780.3,0,764.22,0q-36,0-72,0H.84A.83.83,0,0,0,0,.84V470a.83.83,0,0,0,.93.83l32.14-3.52a37.08,37.08,0,0,1,27.27,7.94l31,24.88A37.11,37.11,0,0,1,105,525l4.33,39.51a37.08,37.08,0,0,1-7.94,27.27l-24.88,31a37.11,37.11,0,0,1-24.9,13.66l-39.85,4.37A36.21,36.21,0,0,1,1,640.38a.83.83,0,0,0-1,.81v126a.83.83,0,0,0,.84.84H1365.16a.83.83,0,0,0,.84-.84V237a.84.84,0,0,0-.79-.83c-1-.06-2.08-.16-3.11-.32Z" transform="translate(0.5 0.55)"/><path id="_polygon_" data-name="&lt;polygon&gt;" class="cls-2" d="M1332.47,474.67l-17,21.23a52.24,52.24,0,0,1-35,19.23l-27.06,3A52.22,52.22,0,0,1,1215,506.92l-21.23-17a52.24,52.24,0,0,1-19.23-35l-3-27.06a52.22,52.22,0,0,1,11.18-38.38l17-21.23a52.2,52.2,0,0,1,35-19.23l27.06-3a52.22,52.22,0,0,1,38.38,11.18l21.23,17a52.2,52.2,0,0,1,19.23,35l3,27.06A52.22,52.22,0,0,1,1332.47,474.67Z" transform="translate(0.5 0.55)"/></svg>